<mxfile host="65bd71144e" pages="2">
    <diagram id="htvneH0tNXw0Nx-Hp_CP" name="Engine">
        <mxGraphModel dx="261" dy="515" grid="1" gridSize="10" guides="1" tooltips="1" connect="1" arrows="1" fold="1" page="1" pageScale="1" pageWidth="850" pageHeight="1100" math="0" shadow="0">
            <root>
                <mxCell id="0"/>
                <mxCell id="1" parent="0"/>
                <mxCell id="14" style="edgeStyle=orthogonalEdgeStyle;rounded=0;orthogonalLoop=1;jettySize=auto;html=1;exitX=0.25;exitY=1;exitDx=0;exitDy=0;entryX=0.5;entryY=0;entryDx=0;entryDy=0;" parent="1" source="2" target="3" edge="1">
                    <mxGeometry relative="1" as="geometry"/>
                </mxCell>
                <mxCell id="15" style="edgeStyle=orthogonalEdgeStyle;rounded=0;orthogonalLoop=1;jettySize=auto;html=1;exitX=0.5;exitY=1;exitDx=0;exitDy=0;entryX=0.5;entryY=0;entryDx=0;entryDy=0;" parent="1" source="2" target="16" edge="1">
                    <mxGeometry relative="1" as="geometry">
                        <mxPoint x="400" y="560" as="targetPoint"/>
                        <Array as="points">
                            <mxPoint x="370" y="550"/>
                        </Array>
                    </mxGeometry>
                </mxCell>
                <mxCell id="y65UPjj5uyh4OKdaI2Sy-19" style="edgeStyle=orthogonalEdgeStyle;rounded=0;orthogonalLoop=1;jettySize=auto;html=1;exitX=0.75;exitY=1;exitDx=0;exitDy=0;" parent="1" source="2" edge="1">
                    <mxGeometry relative="1" as="geometry">
                        <mxPoint x="600" y="550" as="targetPoint"/>
                    </mxGeometry>
                </mxCell>
                <mxCell id="2" value="Engine" style="whiteSpace=wrap;html=1;" parent="1" vertex="1">
                    <mxGeometry x="310" y="350" width="120" height="60" as="geometry"/>
                </mxCell>
                <mxCell id="18" style="edgeStyle=orthogonalEdgeStyle;rounded=0;orthogonalLoop=1;jettySize=auto;html=1;exitX=0.5;exitY=1;exitDx=0;exitDy=0;entryX=0.5;entryY=0;entryDx=0;entryDy=0;" parent="1" source="3" target="6" edge="1">
                    <mxGeometry relative="1" as="geometry"/>
                </mxCell>
                <mxCell id="3" value="Renderer" style="whiteSpace=wrap;html=1;" parent="1" vertex="1">
                    <mxGeometry x="100" y="560" width="120" height="60" as="geometry"/>
                </mxCell>
                <mxCell id="6" value="OpenGL Backend" style="whiteSpace=wrap;html=1;" parent="1" vertex="1">
                    <mxGeometry x="100" y="710" width="120" height="60" as="geometry"/>
                </mxCell>
                <mxCell id="16" value="Entity Component System" style="whiteSpace=wrap;html=1;" parent="1" vertex="1">
                    <mxGeometry x="310" y="560" width="120" height="60" as="geometry"/>
                </mxCell>
            </root>
        </mxGraphModel>
    </diagram>
    <diagram id="CdEX1StxmzGR8QW6C9Wp" name="Renderer">
        <mxGraphModel dx="2043" dy="2012" grid="1" gridSize="10" guides="1" tooltips="1" connect="1" arrows="1" fold="1" page="1" pageScale="1" pageWidth="850" pageHeight="1100" math="0" shadow="0">
            <root>
                <mxCell id="pP8fWMs0nYwBYPtIKDso-0"/>
                <mxCell id="pP8fWMs0nYwBYPtIKDso-1" parent="pP8fWMs0nYwBYPtIKDso-0"/>
                <mxCell id="pP8fWMs0nYwBYPtIKDso-34" value="Sprite" style="swimlane;childLayout=stackLayout;horizontal=1;startSize=30;horizontalStack=0;rounded=1;fontSize=14;fontStyle=0;strokeWidth=2;resizeParent=0;resizeLast=1;shadow=0;dashed=0;align=center;" vertex="1" parent="pP8fWMs0nYwBYPtIKDso-1">
                    <mxGeometry x="-200" y="410" width="160" height="120" as="geometry"/>
                </mxCell>
                <mxCell id="pP8fWMs0nYwBYPtIKDso-35" value="+Texture*&#10;+Rect textureRect&#10;+Color&#10;+Transform" style="align=left;strokeColor=none;fillColor=none;spacingLeft=4;fontSize=12;verticalAlign=top;resizable=0;rotatable=0;part=1;" vertex="1" parent="pP8fWMs0nYwBYPtIKDso-34">
                    <mxGeometry y="30" width="160" height="90" as="geometry"/>
                </mxCell>
                <mxCell id="pP8fWMs0nYwBYPtIKDso-39" style="edgeStyle=orthogonalEdgeStyle;rounded=0;orthogonalLoop=1;jettySize=auto;html=1;exitX=0.5;exitY=1;exitDx=0;exitDy=0;" edge="1" parent="pP8fWMs0nYwBYPtIKDso-1" source="pP8fWMs0nYwBYPtIKDso-45" target="pP8fWMs0nYwBYPtIKDso-40">
                    <mxGeometry relative="1" as="geometry">
                        <mxPoint x="170" y="680" as="targetPoint"/>
                        <mxPoint x="170" y="620" as="sourcePoint"/>
                    </mxGeometry>
                </mxCell>
                <mxCell id="pP8fWMs0nYwBYPtIKDso-38" value="Maps To" style="edgeStyle=orthogonalEdgeStyle;rounded=0;orthogonalLoop=1;jettySize=auto;html=1;exitX=0.5;exitY=1;exitDx=0;exitDy=0;entryX=0.5;entryY=0;entryDx=0;entryDy=0;" edge="1" parent="pP8fWMs0nYwBYPtIKDso-1" source="pP8fWMs0nYwBYPtIKDso-35" target="pP8fWMs0nYwBYPtIKDso-44">
                    <mxGeometry relative="1" as="geometry">
                        <mxPoint x="155" y="320" as="targetPoint"/>
                    </mxGeometry>
                </mxCell>
                <mxCell id="pP8fWMs0nYwBYPtIKDso-44" value="Texture" style="swimlane;childLayout=stackLayout;horizontal=1;startSize=30;horizontalStack=0;rounded=1;fontSize=14;fontStyle=0;strokeWidth=2;resizeParent=0;resizeLast=1;shadow=0;dashed=0;align=center;" vertex="1" parent="pP8fWMs0nYwBYPtIKDso-1">
                    <mxGeometry x="-200" y="600" width="160" height="120" as="geometry"/>
                </mxCell>
                <mxCell id="pP8fWMs0nYwBYPtIKDso-45" value="+width&#10;+height&#10;+clamp style&#10;+filtering method&#10;" style="align=left;strokeColor=none;fillColor=none;spacingLeft=4;fontSize=12;verticalAlign=top;resizable=0;rotatable=0;part=1;" vertex="1" parent="pP8fWMs0nYwBYPtIKDso-44">
                    <mxGeometry y="30" width="160" height="90" as="geometry"/>
                </mxCell>
                <mxCell id="pP8fWMs0nYwBYPtIKDso-40" value="OpenGL Backend" style="rounded=0;whiteSpace=wrap;html=1;" vertex="1" parent="pP8fWMs0nYwBYPtIKDso-1">
                    <mxGeometry x="-10" y="870" width="120" height="60" as="geometry"/>
                </mxCell>
                <mxCell id="pP8fWMs0nYwBYPtIKDso-71" style="edgeStyle=orthogonalEdgeStyle;rounded=0;orthogonalLoop=1;jettySize=auto;html=1;entryX=0.5;entryY=0;entryDx=0;entryDy=0;exitX=0.5;exitY=1;exitDx=0;exitDy=0;" edge="1" parent="pP8fWMs0nYwBYPtIKDso-1" source="pP8fWMs0nYwBYPtIKDso-81" target="pP8fWMs0nYwBYPtIKDso-40">
                    <mxGeometry relative="1" as="geometry">
                        <mxPoint x="660" y="810" as="targetPoint"/>
                        <mxPoint x="1080" y="270" as="sourcePoint"/>
                    </mxGeometry>
                </mxCell>
                <mxCell id="pP8fWMs0nYwBYPtIKDso-73" value="View" style="swimlane;childLayout=stackLayout;horizontal=1;startSize=30;horizontalStack=0;rounded=1;fontSize=14;fontStyle=0;strokeWidth=2;resizeParent=0;resizeLast=1;shadow=0;dashed=0;align=center;" vertex="1" parent="pP8fWMs0nYwBYPtIKDso-1">
                    <mxGeometry x="540" y="220" width="160" height="120" as="geometry"/>
                </mxCell>
                <mxCell id="pP8fWMs0nYwBYPtIKDso-74" value="+Rect" style="align=left;strokeColor=none;fillColor=none;spacingLeft=4;fontSize=12;verticalAlign=top;resizable=0;rotatable=0;part=1;" vertex="1" parent="pP8fWMs0nYwBYPtIKDso-73">
                    <mxGeometry y="30" width="160" height="90" as="geometry"/>
                </mxCell>
                <mxCell id="pP8fWMs0nYwBYPtIKDso-75" value="FrameBufer" style="swimlane;childLayout=stackLayout;horizontal=1;startSize=30;horizontalStack=0;rounded=1;fontSize=14;fontStyle=0;strokeWidth=2;resizeParent=0;resizeLast=1;shadow=0;dashed=0;align=center;" vertex="1" parent="pP8fWMs0nYwBYPtIKDso-1">
                    <mxGeometry x="110" y="590" width="160" height="120" as="geometry"/>
                </mxCell>
                <mxCell id="pP8fWMs0nYwBYPtIKDso-76" value="+Attribute1&#10;+Attribute2&#10;+Attribute3" style="align=left;strokeColor=none;fillColor=none;spacingLeft=4;fontSize=12;verticalAlign=top;resizable=0;rotatable=0;part=1;" vertex="1" parent="pP8fWMs0nYwBYPtIKDso-75">
                    <mxGeometry y="30" width="160" height="90" as="geometry"/>
                </mxCell>
                <mxCell id="pP8fWMs0nYwBYPtIKDso-77" style="edgeStyle=orthogonalEdgeStyle;rounded=0;orthogonalLoop=1;jettySize=auto;html=1;exitX=0.5;exitY=1;exitDx=0;exitDy=0;entryX=0.5;entryY=0;entryDx=0;entryDy=0;" edge="1" parent="pP8fWMs0nYwBYPtIKDso-1" source="pP8fWMs0nYwBYPtIKDso-74" target="pP8fWMs0nYwBYPtIKDso-75">
                    <mxGeometry relative="1" as="geometry"/>
                </mxCell>
                <mxCell id="pP8fWMs0nYwBYPtIKDso-65" value="Vector&lt;Sprite&gt;" style="swimlane;childLayout=stackLayout;horizontal=1;startSize=30;horizontalStack=0;rounded=1;fontSize=14;fontStyle=0;strokeWidth=2;resizeParent=0;resizeLast=1;shadow=0;dashed=0;align=center;" vertex="1" parent="pP8fWMs0nYwBYPtIKDso-1">
                    <mxGeometry x="185" y="220" width="110" height="120" as="geometry"/>
                </mxCell>
                <mxCell id="pP8fWMs0nYwBYPtIKDso-67" value="+Attribute1&#10;+Attribute2&#10;+Attribute3" style="align=left;strokeColor=none;fillColor=none;spacingLeft=4;fontSize=12;verticalAlign=top;resizable=0;rotatable=0;part=1;" vertex="1" parent="pP8fWMs0nYwBYPtIKDso-65">
                    <mxGeometry y="30" width="110" height="90" as="geometry"/>
                </mxCell>
                <mxCell id="pP8fWMs0nYwBYPtIKDso-80" value="RenderBatch" style="swimlane;childLayout=stackLayout;horizontal=1;startSize=30;horizontalStack=0;rounded=1;fontSize=14;fontStyle=0;strokeWidth=2;resizeParent=0;resizeLast=1;shadow=0;dashed=0;align=center;" vertex="1" parent="pP8fWMs0nYwBYPtIKDso-1">
                    <mxGeometry x="440" y="30" width="160" height="120" as="geometry"/>
                </mxCell>
                <mxCell id="pP8fWMs0nYwBYPtIKDso-81" value="+bool viewCulling&#10;" style="align=left;strokeColor=none;fillColor=none;spacingLeft=4;fontSize=12;verticalAlign=top;resizable=0;rotatable=0;part=1;" vertex="1" parent="pP8fWMs0nYwBYPtIKDso-80">
                    <mxGeometry y="30" width="160" height="90" as="geometry"/>
                </mxCell>
                <mxCell id="pP8fWMs0nYwBYPtIKDso-82" style="edgeStyle=orthogonalEdgeStyle;rounded=0;orthogonalLoop=1;jettySize=auto;html=1;exitX=0.805;exitY=1.03;exitDx=0;exitDy=0;entryX=0.5;entryY=0;entryDx=0;entryDy=0;exitPerimeter=0;" edge="1" parent="pP8fWMs0nYwBYPtIKDso-1" source="pP8fWMs0nYwBYPtIKDso-81" target="pP8fWMs0nYwBYPtIKDso-73">
                    <mxGeometry relative="1" as="geometry"/>
                </mxCell>
                <mxCell id="pP8fWMs0nYwBYPtIKDso-97" value="Draws To" style="edgeLabel;html=1;align=center;verticalAlign=middle;resizable=0;points=[];" vertex="1" connectable="0" parent="pP8fWMs0nYwBYPtIKDso-82">
                    <mxGeometry x="-0.597" y="2" relative="1" as="geometry">
                        <mxPoint as="offset"/>
                    </mxGeometry>
                </mxCell>
                <mxCell id="pP8fWMs0nYwBYPtIKDso-86" style="edgeStyle=orthogonalEdgeStyle;rounded=0;orthogonalLoop=1;jettySize=auto;html=1;exitX=0.25;exitY=1;exitDx=0;exitDy=0;entryX=0.5;entryY=0;entryDx=0;entryDy=0;" edge="1" parent="pP8fWMs0nYwBYPtIKDso-1" source="pP8fWMs0nYwBYPtIKDso-81" target="pP8fWMs0nYwBYPtIKDso-65">
                    <mxGeometry relative="1" as="geometry">
                        <Array as="points">
                            <mxPoint x="510" y="195"/>
                            <mxPoint x="240" y="195"/>
                        </Array>
                    </mxGeometry>
                </mxCell>
                <mxCell id="pP8fWMs0nYwBYPtIKDso-88" style="edgeStyle=orthogonalEdgeStyle;rounded=0;orthogonalLoop=1;jettySize=auto;html=1;exitX=0.5;exitY=1;exitDx=0;exitDy=0;entryX=0.5;entryY=0;entryDx=0;entryDy=0;" edge="1" parent="pP8fWMs0nYwBYPtIKDso-1" source="pP8fWMs0nYwBYPtIKDso-67" target="pP8fWMs0nYwBYPtIKDso-34">
                    <mxGeometry relative="1" as="geometry"/>
                </mxCell>
                <mxCell id="pP8fWMs0nYwBYPtIKDso-89" style="edgeStyle=orthogonalEdgeStyle;rounded=0;orthogonalLoop=1;jettySize=auto;html=1;exitX=0.5;exitY=1;exitDx=0;exitDy=0;entryX=0.5;entryY=0;entryDx=0;entryDy=0;" edge="1" parent="pP8fWMs0nYwBYPtIKDso-1" source="pP8fWMs0nYwBYPtIKDso-76" target="pP8fWMs0nYwBYPtIKDso-40">
                    <mxGeometry relative="1" as="geometry"/>
                </mxCell>
                <mxCell id="pP8fWMs0nYwBYPtIKDso-92" style="edgeStyle=orthogonalEdgeStyle;rounded=0;orthogonalLoop=1;jettySize=auto;html=1;exitX=0;exitY=0.5;exitDx=0;exitDy=0;entryX=1;entryY=0.403;entryDx=0;entryDy=0;entryPerimeter=0;" edge="1" parent="pP8fWMs0nYwBYPtIKDso-1" source="pP8fWMs0nYwBYPtIKDso-76" target="pP8fWMs0nYwBYPtIKDso-45">
                    <mxGeometry relative="1" as="geometry">
                        <mxPoint x="321" y="699" as="targetPoint"/>
                    </mxGeometry>
                </mxCell>
                <mxCell id="pP8fWMs0nYwBYPtIKDso-95" style="edgeStyle=orthogonalEdgeStyle;rounded=0;orthogonalLoop=1;jettySize=auto;html=1;exitX=0.5;exitY=1;exitDx=0;exitDy=0;entryX=0.5;entryY=0;entryDx=0;entryDy=0;" edge="1" parent="pP8fWMs0nYwBYPtIKDso-1" source="pP8fWMs0nYwBYPtIKDso-94" target="pP8fWMs0nYwBYPtIKDso-80">
                    <mxGeometry relative="1" as="geometry"/>
                </mxCell>
                <mxCell id="pP8fWMs0nYwBYPtIKDso-96" value="Draw" style="edgeLabel;html=1;align=center;verticalAlign=middle;resizable=0;points=[];" vertex="1" connectable="0" parent="pP8fWMs0nYwBYPtIKDso-95">
                    <mxGeometry x="-0.4839" y="1" relative="1" as="geometry">
                        <mxPoint as="offset"/>
                    </mxGeometry>
                </mxCell>
                <mxCell id="pP8fWMs0nYwBYPtIKDso-94" value="Render" style="rounded=0;whiteSpace=wrap;html=1;" vertex="1" parent="pP8fWMs0nYwBYPtIKDso-1">
                    <mxGeometry x="130" y="-210" width="120" height="60" as="geometry"/>
                </mxCell>
            </root>
        </mxGraphModel>
    </diagram>
    <diagram id="ZPd2nD6deF1pPPPOOnyn" name="Collision Grid">
        <mxGraphModel dx="261" dy="515" grid="1" gridSize="10" guides="1" tooltips="1" connect="1" arrows="1" fold="1" page="1" pageScale="1" pageWidth="850" pageHeight="1100" math="0" shadow="0">
            <root>
                <mxCell id="6uhmPw-9wfRqb-_VS2zS-0"/>
                <mxCell id="6uhmPw-9wfRqb-_VS2zS-1" parent="6uhmPw-9wfRqb-_VS2zS-0"/>
                <mxCell id="6uhmPw-9wfRqb-_VS2zS-55" value="Cell Structure" style="swimlane;" parent="6uhmPw-9wfRqb-_VS2zS-1" vertex="1">
                    <mxGeometry x="30" y="50" width="590" height="370" as="geometry"/>
                </mxCell>
                <mxCell id="6uhmPw-9wfRqb-_VS2zS-2" value="" style="shape=table;startSize=0;container=1;collapsible=0;childLayout=tableLayout;" parent="6uhmPw-9wfRqb-_VS2zS-55" vertex="1">
                    <mxGeometry x="70" y="65" width="250" height="230" as="geometry"/>
                </mxCell>
                <mxCell id="6uhmPw-9wfRqb-_VS2zS-3" value="" style="shape=partialRectangle;collapsible=0;dropTarget=0;pointerEvents=0;fillColor=none;top=0;left=0;bottom=0;right=0;points=[[0,0.5],[1,0.5]];portConstraint=eastwest;" parent="6uhmPw-9wfRqb-_VS2zS-2" vertex="1">
                    <mxGeometry width="250" height="46" as="geometry"/>
                </mxCell>
                <mxCell id="6uhmPw-9wfRqb-_VS2zS-4" value="cell&lt;br&gt;points to first element" style="shape=partialRectangle;html=1;whiteSpace=wrap;connectable=0;overflow=hidden;fillColor=none;top=0;left=0;bottom=0;right=0;pointerEvents=1;" parent="6uhmPw-9wfRqb-_VS2zS-3" vertex="1">
                    <mxGeometry width="50" height="46" as="geometry"/>
                </mxCell>
                <mxCell id="6uhmPw-9wfRqb-_VS2zS-5" value="" style="shape=partialRectangle;html=1;whiteSpace=wrap;connectable=0;overflow=hidden;fillColor=none;top=0;left=0;bottom=0;right=0;pointerEvents=1;" parent="6uhmPw-9wfRqb-_VS2zS-3" vertex="1">
                    <mxGeometry x="50" width="50" height="46" as="geometry"/>
                </mxCell>
                <mxCell id="6uhmPw-9wfRqb-_VS2zS-6" value="" style="shape=partialRectangle;html=1;whiteSpace=wrap;connectable=0;overflow=hidden;fillColor=none;top=0;left=0;bottom=0;right=0;pointerEvents=1;" parent="6uhmPw-9wfRqb-_VS2zS-3" vertex="1">
                    <mxGeometry x="100" width="50" height="46" as="geometry"/>
                </mxCell>
                <mxCell id="6uhmPw-9wfRqb-_VS2zS-7" value="" style="shape=partialRectangle;html=1;whiteSpace=wrap;connectable=0;overflow=hidden;fillColor=none;top=0;left=0;bottom=0;right=0;pointerEvents=1;" parent="6uhmPw-9wfRqb-_VS2zS-3" vertex="1">
                    <mxGeometry x="150" width="50" height="46" as="geometry"/>
                </mxCell>
                <mxCell id="6uhmPw-9wfRqb-_VS2zS-8" value="" style="shape=partialRectangle;html=1;whiteSpace=wrap;connectable=0;overflow=hidden;fillColor=none;top=0;left=0;bottom=0;right=0;pointerEvents=1;" parent="6uhmPw-9wfRqb-_VS2zS-3" vertex="1">
                    <mxGeometry x="200" width="50" height="46" as="geometry"/>
                </mxCell>
                <mxCell id="6uhmPw-9wfRqb-_VS2zS-9" value="" style="shape=partialRectangle;collapsible=0;dropTarget=0;pointerEvents=0;fillColor=none;top=0;left=0;bottom=0;right=0;points=[[0,0.5],[1,0.5]];portConstraint=eastwest;" parent="6uhmPw-9wfRqb-_VS2zS-2" vertex="1">
                    <mxGeometry y="46" width="250" height="46" as="geometry"/>
                </mxCell>
                <mxCell id="6uhmPw-9wfRqb-_VS2zS-10" value="" style="shape=partialRectangle;html=1;whiteSpace=wrap;connectable=0;overflow=hidden;fillColor=none;top=0;left=0;bottom=0;right=0;pointerEvents=1;" parent="6uhmPw-9wfRqb-_VS2zS-9" vertex="1">
                    <mxGeometry width="50" height="46" as="geometry"/>
                </mxCell>
                <mxCell id="6uhmPw-9wfRqb-_VS2zS-11" value="" style="shape=partialRectangle;html=1;whiteSpace=wrap;connectable=0;overflow=hidden;fillColor=none;top=0;left=0;bottom=0;right=0;pointerEvents=1;" parent="6uhmPw-9wfRqb-_VS2zS-9" vertex="1">
                    <mxGeometry x="50" width="50" height="46" as="geometry"/>
                </mxCell>
                <mxCell id="6uhmPw-9wfRqb-_VS2zS-12" value="" style="shape=partialRectangle;html=1;whiteSpace=wrap;connectable=0;overflow=hidden;fillColor=none;top=0;left=0;bottom=0;right=0;pointerEvents=1;" parent="6uhmPw-9wfRqb-_VS2zS-9" vertex="1">
                    <mxGeometry x="100" width="50" height="46" as="geometry"/>
                </mxCell>
                <mxCell id="6uhmPw-9wfRqb-_VS2zS-13" value="" style="shape=partialRectangle;html=1;whiteSpace=wrap;connectable=0;overflow=hidden;fillColor=none;top=0;left=0;bottom=0;right=0;pointerEvents=1;" parent="6uhmPw-9wfRqb-_VS2zS-9" vertex="1">
                    <mxGeometry x="150" width="50" height="46" as="geometry"/>
                </mxCell>
                <mxCell id="6uhmPw-9wfRqb-_VS2zS-14" value="" style="shape=partialRectangle;html=1;whiteSpace=wrap;connectable=0;overflow=hidden;fillColor=none;top=0;left=0;bottom=0;right=0;pointerEvents=1;" parent="6uhmPw-9wfRqb-_VS2zS-9" vertex="1">
                    <mxGeometry x="200" width="50" height="46" as="geometry"/>
                </mxCell>
                <mxCell id="6uhmPw-9wfRqb-_VS2zS-15" value="" style="shape=partialRectangle;collapsible=0;dropTarget=0;pointerEvents=0;fillColor=none;top=0;left=0;bottom=0;right=0;points=[[0,0.5],[1,0.5]];portConstraint=eastwest;" parent="6uhmPw-9wfRqb-_VS2zS-2" vertex="1">
                    <mxGeometry y="92" width="250" height="46" as="geometry"/>
                </mxCell>
                <mxCell id="6uhmPw-9wfRqb-_VS2zS-16" value="" style="shape=partialRectangle;html=1;whiteSpace=wrap;connectable=0;overflow=hidden;fillColor=none;top=0;left=0;bottom=0;right=0;pointerEvents=1;" parent="6uhmPw-9wfRqb-_VS2zS-15" vertex="1">
                    <mxGeometry width="50" height="46" as="geometry"/>
                </mxCell>
                <mxCell id="6uhmPw-9wfRqb-_VS2zS-17" value="" style="shape=partialRectangle;html=1;whiteSpace=wrap;connectable=0;overflow=hidden;fillColor=none;top=0;left=0;bottom=0;right=0;pointerEvents=1;" parent="6uhmPw-9wfRqb-_VS2zS-15" vertex="1">
                    <mxGeometry x="50" width="50" height="46" as="geometry"/>
                </mxCell>
                <mxCell id="6uhmPw-9wfRqb-_VS2zS-18" value="" style="shape=partialRectangle;html=1;whiteSpace=wrap;connectable=0;overflow=hidden;fillColor=none;top=0;left=0;bottom=0;right=0;pointerEvents=1;" parent="6uhmPw-9wfRqb-_VS2zS-15" vertex="1">
                    <mxGeometry x="100" width="50" height="46" as="geometry"/>
                </mxCell>
                <mxCell id="6uhmPw-9wfRqb-_VS2zS-19" value="" style="shape=partialRectangle;html=1;whiteSpace=wrap;connectable=0;overflow=hidden;fillColor=none;top=0;left=0;bottom=0;right=0;pointerEvents=1;" parent="6uhmPw-9wfRqb-_VS2zS-15" vertex="1">
                    <mxGeometry x="150" width="50" height="46" as="geometry"/>
                </mxCell>
                <mxCell id="6uhmPw-9wfRqb-_VS2zS-20" value="" style="shape=partialRectangle;html=1;whiteSpace=wrap;connectable=0;overflow=hidden;fillColor=none;top=0;left=0;bottom=0;right=0;pointerEvents=1;" parent="6uhmPw-9wfRqb-_VS2zS-15" vertex="1">
                    <mxGeometry x="200" width="50" height="46" as="geometry"/>
                </mxCell>
                <mxCell id="6uhmPw-9wfRqb-_VS2zS-21" value="" style="shape=partialRectangle;collapsible=0;dropTarget=0;pointerEvents=0;fillColor=none;top=0;left=0;bottom=0;right=0;points=[[0,0.5],[1,0.5]];portConstraint=eastwest;" parent="6uhmPw-9wfRqb-_VS2zS-2" vertex="1">
                    <mxGeometry y="138" width="250" height="46" as="geometry"/>
                </mxCell>
                <mxCell id="6uhmPw-9wfRqb-_VS2zS-22" value="" style="shape=partialRectangle;html=1;whiteSpace=wrap;connectable=0;overflow=hidden;fillColor=none;top=0;left=0;bottom=0;right=0;pointerEvents=1;" parent="6uhmPw-9wfRqb-_VS2zS-21" vertex="1">
                    <mxGeometry width="50" height="46" as="geometry"/>
                </mxCell>
                <mxCell id="6uhmPw-9wfRqb-_VS2zS-23" value="" style="shape=partialRectangle;html=1;whiteSpace=wrap;connectable=0;overflow=hidden;fillColor=none;top=0;left=0;bottom=0;right=0;pointerEvents=1;" parent="6uhmPw-9wfRqb-_VS2zS-21" vertex="1">
                    <mxGeometry x="50" width="50" height="46" as="geometry"/>
                </mxCell>
                <mxCell id="6uhmPw-9wfRqb-_VS2zS-24" value="" style="shape=partialRectangle;html=1;whiteSpace=wrap;connectable=0;overflow=hidden;fillColor=none;top=0;left=0;bottom=0;right=0;pointerEvents=1;" parent="6uhmPw-9wfRqb-_VS2zS-21" vertex="1">
                    <mxGeometry x="100" width="50" height="46" as="geometry"/>
                </mxCell>
                <mxCell id="6uhmPw-9wfRqb-_VS2zS-25" value="" style="shape=partialRectangle;html=1;whiteSpace=wrap;connectable=0;overflow=hidden;fillColor=none;top=0;left=0;bottom=0;right=0;pointerEvents=1;" parent="6uhmPw-9wfRqb-_VS2zS-21" vertex="1">
                    <mxGeometry x="150" width="50" height="46" as="geometry"/>
                </mxCell>
                <mxCell id="6uhmPw-9wfRqb-_VS2zS-26" value="" style="shape=partialRectangle;html=1;whiteSpace=wrap;connectable=0;overflow=hidden;fillColor=none;top=0;left=0;bottom=0;right=0;pointerEvents=1;" parent="6uhmPw-9wfRqb-_VS2zS-21" vertex="1">
                    <mxGeometry x="200" width="50" height="46" as="geometry"/>
                </mxCell>
                <mxCell id="6uhmPw-9wfRqb-_VS2zS-27" value="" style="shape=partialRectangle;collapsible=0;dropTarget=0;pointerEvents=0;fillColor=none;top=0;left=0;bottom=0;right=0;points=[[0,0.5],[1,0.5]];portConstraint=eastwest;" parent="6uhmPw-9wfRqb-_VS2zS-2" vertex="1">
                    <mxGeometry y="184" width="250" height="46" as="geometry"/>
                </mxCell>
                <mxCell id="6uhmPw-9wfRqb-_VS2zS-28" value="" style="shape=partialRectangle;html=1;whiteSpace=wrap;connectable=0;overflow=hidden;fillColor=none;top=0;left=0;bottom=0;right=0;pointerEvents=1;" parent="6uhmPw-9wfRqb-_VS2zS-27" vertex="1">
                    <mxGeometry width="50" height="46" as="geometry"/>
                </mxCell>
                <mxCell id="6uhmPw-9wfRqb-_VS2zS-29" value="" style="shape=partialRectangle;html=1;whiteSpace=wrap;connectable=0;overflow=hidden;fillColor=none;top=0;left=0;bottom=0;right=0;pointerEvents=1;" parent="6uhmPw-9wfRqb-_VS2zS-27" vertex="1">
                    <mxGeometry x="50" width="50" height="46" as="geometry"/>
                </mxCell>
                <mxCell id="6uhmPw-9wfRqb-_VS2zS-30" value="" style="shape=partialRectangle;html=1;whiteSpace=wrap;connectable=0;overflow=hidden;fillColor=none;top=0;left=0;bottom=0;right=0;pointerEvents=1;" parent="6uhmPw-9wfRqb-_VS2zS-27" vertex="1">
                    <mxGeometry x="100" width="50" height="46" as="geometry"/>
                </mxCell>
                <mxCell id="6uhmPw-9wfRqb-_VS2zS-31" value="" style="shape=partialRectangle;html=1;whiteSpace=wrap;connectable=0;overflow=hidden;fillColor=none;top=0;left=0;bottom=0;right=0;pointerEvents=1;" parent="6uhmPw-9wfRqb-_VS2zS-27" vertex="1">
                    <mxGeometry x="150" width="50" height="46" as="geometry"/>
                </mxCell>
                <mxCell id="6uhmPw-9wfRqb-_VS2zS-32" value="" style="shape=partialRectangle;html=1;whiteSpace=wrap;connectable=0;overflow=hidden;fillColor=none;top=0;left=0;bottom=0;right=0;pointerEvents=1;" parent="6uhmPw-9wfRqb-_VS2zS-27" vertex="1">
                    <mxGeometry x="200" width="50" height="46" as="geometry"/>
                </mxCell>
                <mxCell id="6uhmPw-9wfRqb-_VS2zS-33" value="" style="shape=table;startSize=0;container=1;collapsible=0;childLayout=tableLayout;" parent="6uhmPw-9wfRqb-_VS2zS-55" vertex="1">
                    <mxGeometry x="410" y="45" width="50" height="230" as="geometry"/>
                </mxCell>
                <mxCell id="6uhmPw-9wfRqb-_VS2zS-46" style="edgeStyle=orthogonalEdgeStyle;html=1;exitX=1;exitY=0.5;exitDx=0;exitDy=0;entryX=1;entryY=0.5;entryDx=0;entryDy=0;" parent="6uhmPw-9wfRqb-_VS2zS-33" source="6uhmPw-9wfRqb-_VS2zS-34" target="6uhmPw-9wfRqb-_VS2zS-40" edge="1">
                    <mxGeometry relative="1" as="geometry"/>
                </mxCell>
                <mxCell id="6uhmPw-9wfRqb-_VS2zS-34" value="" style="shape=partialRectangle;collapsible=0;dropTarget=0;pointerEvents=0;fillColor=none;top=0;left=0;bottom=0;right=0;points=[[0,0.5],[1,0.5]];portConstraint=eastwest;" parent="6uhmPw-9wfRqb-_VS2zS-33" vertex="1">
                    <mxGeometry width="50" height="46" as="geometry"/>
                </mxCell>
                <mxCell id="6uhmPw-9wfRqb-_VS2zS-35" value="id&lt;br&gt;prev&lt;br&gt;next" style="shape=partialRectangle;html=1;whiteSpace=wrap;connectable=0;overflow=hidden;fillColor=none;top=0;left=0;bottom=0;right=0;pointerEvents=1;" parent="6uhmPw-9wfRqb-_VS2zS-34" vertex="1">
                    <mxGeometry width="50" height="46" as="geometry"/>
                </mxCell>
                <mxCell id="6uhmPw-9wfRqb-_VS2zS-48" style="edgeStyle=orthogonalEdgeStyle;html=1;exitX=1;exitY=0.5;exitDx=0;exitDy=0;entryX=1;entryY=0.5;entryDx=0;entryDy=0;" parent="6uhmPw-9wfRqb-_VS2zS-33" source="6uhmPw-9wfRqb-_VS2zS-36" target="6uhmPw-9wfRqb-_VS2zS-42" edge="1">
                    <mxGeometry relative="1" as="geometry">
                        <Array as="points">
                            <mxPoint x="100" y="69"/>
                            <mxPoint x="100" y="207"/>
                        </Array>
                    </mxGeometry>
                </mxCell>
                <mxCell id="6uhmPw-9wfRqb-_VS2zS-36" value="" style="shape=partialRectangle;collapsible=0;dropTarget=0;pointerEvents=0;fillColor=none;top=0;left=0;bottom=0;right=0;points=[[0,0.5],[1,0.5]];portConstraint=eastwest;" parent="6uhmPw-9wfRqb-_VS2zS-33" vertex="1">
                    <mxGeometry y="46" width="50" height="46" as="geometry"/>
                </mxCell>
                <mxCell id="6uhmPw-9wfRqb-_VS2zS-37" value="" style="shape=partialRectangle;html=1;whiteSpace=wrap;connectable=0;overflow=hidden;fillColor=none;top=0;left=0;bottom=0;right=0;pointerEvents=1;" parent="6uhmPw-9wfRqb-_VS2zS-36" vertex="1">
                    <mxGeometry width="50" height="46" as="geometry"/>
                </mxCell>
                <mxCell id="6uhmPw-9wfRqb-_VS2zS-38" value="" style="shape=partialRectangle;collapsible=0;dropTarget=0;pointerEvents=0;fillColor=none;top=0;left=0;bottom=0;right=0;points=[[0,0.5],[1,0.5]];portConstraint=eastwest;" parent="6uhmPw-9wfRqb-_VS2zS-33" vertex="1">
                    <mxGeometry y="92" width="50" height="46" as="geometry"/>
                </mxCell>
                <mxCell id="6uhmPw-9wfRqb-_VS2zS-39" value="" style="shape=partialRectangle;html=1;whiteSpace=wrap;connectable=0;overflow=hidden;fillColor=none;top=0;left=0;bottom=0;right=0;pointerEvents=1;" parent="6uhmPw-9wfRqb-_VS2zS-38" vertex="1">
                    <mxGeometry width="50" height="46" as="geometry"/>
                </mxCell>
                <mxCell id="6uhmPw-9wfRqb-_VS2zS-40" value="" style="shape=partialRectangle;collapsible=0;dropTarget=0;pointerEvents=0;fillColor=none;top=0;left=0;bottom=0;right=0;points=[[0,0.5],[1,0.5]];portConstraint=eastwest;" parent="6uhmPw-9wfRqb-_VS2zS-33" vertex="1">
                    <mxGeometry y="138" width="50" height="46" as="geometry"/>
                </mxCell>
                <mxCell id="6uhmPw-9wfRqb-_VS2zS-41" value="" style="shape=partialRectangle;html=1;whiteSpace=wrap;connectable=0;overflow=hidden;fillColor=none;top=0;left=0;bottom=0;right=0;pointerEvents=1;" parent="6uhmPw-9wfRqb-_VS2zS-40" vertex="1">
                    <mxGeometry width="50" height="46" as="geometry"/>
                </mxCell>
                <mxCell id="6uhmPw-9wfRqb-_VS2zS-54" style="edgeStyle=orthogonalEdgeStyle;html=1;exitX=1;exitY=0.5;exitDx=0;exitDy=0;entryX=1;entryY=0.5;entryDx=0;entryDy=0;" parent="6uhmPw-9wfRqb-_VS2zS-33" source="6uhmPw-9wfRqb-_VS2zS-42" target="6uhmPw-9wfRqb-_VS2zS-36" edge="1">
                    <mxGeometry relative="1" as="geometry">
                        <Array as="points">
                            <mxPoint x="100" y="207"/>
                            <mxPoint x="100" y="69"/>
                        </Array>
                    </mxGeometry>
                </mxCell>
                <mxCell id="6uhmPw-9wfRqb-_VS2zS-42" value="" style="shape=partialRectangle;collapsible=0;dropTarget=0;pointerEvents=0;fillColor=none;top=0;left=0;bottom=0;right=0;points=[[0,0.5],[1,0.5]];portConstraint=eastwest;" parent="6uhmPw-9wfRqb-_VS2zS-33" vertex="1">
                    <mxGeometry y="184" width="50" height="46" as="geometry"/>
                </mxCell>
                <mxCell id="6uhmPw-9wfRqb-_VS2zS-43" value="" style="shape=partialRectangle;html=1;whiteSpace=wrap;connectable=0;overflow=hidden;fillColor=none;top=0;left=0;bottom=0;right=0;pointerEvents=1;" parent="6uhmPw-9wfRqb-_VS2zS-42" vertex="1">
                    <mxGeometry width="50" height="46" as="geometry"/>
                </mxCell>
                <mxCell id="6uhmPw-9wfRqb-_VS2zS-45" style="edgeStyle=orthogonalEdgeStyle;html=1;exitX=0;exitY=0.5;exitDx=0;exitDy=0;entryX=0.47;entryY=0.022;entryDx=0;entryDy=0;entryPerimeter=0;" parent="6uhmPw-9wfRqb-_VS2zS-55" source="6uhmPw-9wfRqb-_VS2zS-3" target="6uhmPw-9wfRqb-_VS2zS-34" edge="1">
                    <mxGeometry relative="1" as="geometry"/>
                </mxCell>
                <mxCell id="6uhmPw-9wfRqb-_VS2zS-49" value="" style="shape=table;startSize=0;container=1;collapsible=0;childLayout=tableLayout;" parent="6uhmPw-9wfRqb-_VS2zS-55" vertex="1">
                    <mxGeometry x="380" y="295" width="60" height="40" as="geometry"/>
                </mxCell>
                <mxCell id="6uhmPw-9wfRqb-_VS2zS-50" value="" style="shape=partialRectangle;collapsible=0;dropTarget=0;pointerEvents=0;fillColor=none;top=0;left=0;bottom=0;right=0;points=[[0,0.5],[1,0.5]];portConstraint=eastwest;" parent="6uhmPw-9wfRqb-_VS2zS-49" vertex="1">
                    <mxGeometry width="60" height="40" as="geometry"/>
                </mxCell>
                <mxCell id="6uhmPw-9wfRqb-_VS2zS-51" value="null / -1" style="shape=partialRectangle;html=1;whiteSpace=wrap;connectable=0;overflow=hidden;fillColor=none;top=0;left=0;bottom=0;right=0;pointerEvents=1;" parent="6uhmPw-9wfRqb-_VS2zS-50" vertex="1">
                    <mxGeometry width="60" height="40" as="geometry"/>
                </mxCell>
                <mxCell id="6uhmPw-9wfRqb-_VS2zS-52" style="edgeStyle=orthogonalEdgeStyle;html=1;exitX=1;exitY=0.5;exitDx=0;exitDy=0;entryX=1;entryY=0.5;entryDx=0;entryDy=0;" parent="6uhmPw-9wfRqb-_VS2zS-55" source="6uhmPw-9wfRqb-_VS2zS-40" target="6uhmPw-9wfRqb-_VS2zS-50" edge="1">
                    <mxGeometry relative="1" as="geometry">
                        <mxPoint x="465" y="325" as="targetPoint"/>
                    </mxGeometry>
                </mxCell>
                <mxCell id="6uhmPw-9wfRqb-_VS2zS-53" style="edgeStyle=orthogonalEdgeStyle;html=1;exitX=1;exitY=0.5;exitDx=0;exitDy=0;entryX=1;entryY=0.5;entryDx=0;entryDy=0;" parent="6uhmPw-9wfRqb-_VS2zS-55" source="6uhmPw-9wfRqb-_VS2zS-42" target="6uhmPw-9wfRqb-_VS2zS-50" edge="1">
                    <mxGeometry relative="1" as="geometry">
                        <mxPoint x="465" y="325" as="targetPoint"/>
                        <Array as="points">
                            <mxPoint x="510" y="252"/>
                            <mxPoint x="510" y="315"/>
                        </Array>
                    </mxGeometry>
                </mxCell>
                <mxCell id="6uhmPw-9wfRqb-_VS2zS-56" value="Colliders" style="swimlane;" parent="6uhmPw-9wfRqb-_VS2zS-1" vertex="1">
                    <mxGeometry x="30" y="510" width="590" height="500" as="geometry"/>
                </mxCell>
                <mxCell id="6uhmPw-9wfRqb-_VS2zS-71" value="Occupied Cells" style="text;html=1;align=center;verticalAlign=middle;resizable=0;points=[];autosize=1;strokeColor=none;" parent="6uhmPw-9wfRqb-_VS2zS-56" vertex="1">
                    <mxGeometry x="365" y="80" width="100" height="20" as="geometry"/>
                </mxCell>
                <mxCell id="6uhmPw-9wfRqb-_VS2zS-72" value="" style="shape=table;startSize=0;container=1;collapsible=0;childLayout=tableLayout;" parent="6uhmPw-9wfRqb-_VS2zS-56" vertex="1">
                    <mxGeometry x="100" y="105" width="50" height="230" as="geometry"/>
                </mxCell>
                <mxCell id="6uhmPw-9wfRqb-_VS2zS-74" value="" style="shape=partialRectangle;collapsible=0;dropTarget=0;pointerEvents=0;fillColor=none;top=0;left=0;bottom=0;right=0;points=[[0,0.5],[1,0.5]];portConstraint=eastwest;" parent="6uhmPw-9wfRqb-_VS2zS-72" vertex="1">
                    <mxGeometry width="50" height="46" as="geometry"/>
                </mxCell>
                <mxCell id="6uhmPw-9wfRqb-_VS2zS-75" value="collider" style="shape=partialRectangle;html=1;whiteSpace=wrap;connectable=0;overflow=hidden;fillColor=none;top=0;left=0;bottom=0;right=0;pointerEvents=1;" parent="6uhmPw-9wfRqb-_VS2zS-74" vertex="1">
                    <mxGeometry width="50" height="46" as="geometry"/>
                </mxCell>
                <mxCell id="6uhmPw-9wfRqb-_VS2zS-77" value="" style="shape=partialRectangle;collapsible=0;dropTarget=0;pointerEvents=0;fillColor=none;top=0;left=0;bottom=0;right=0;points=[[0,0.5],[1,0.5]];portConstraint=eastwest;" parent="6uhmPw-9wfRqb-_VS2zS-72" vertex="1">
                    <mxGeometry y="46" width="50" height="46" as="geometry"/>
                </mxCell>
                <mxCell id="6uhmPw-9wfRqb-_VS2zS-78" value="" style="shape=partialRectangle;html=1;whiteSpace=wrap;connectable=0;overflow=hidden;fillColor=none;top=0;left=0;bottom=0;right=0;pointerEvents=1;" parent="6uhmPw-9wfRqb-_VS2zS-77" vertex="1">
                    <mxGeometry width="50" height="46" as="geometry"/>
                </mxCell>
                <mxCell id="6uhmPw-9wfRqb-_VS2zS-79" value="" style="shape=partialRectangle;collapsible=0;dropTarget=0;pointerEvents=0;fillColor=none;top=0;left=0;bottom=0;right=0;points=[[0,0.5],[1,0.5]];portConstraint=eastwest;" parent="6uhmPw-9wfRqb-_VS2zS-72" vertex="1">
                    <mxGeometry y="92" width="50" height="46" as="geometry"/>
                </mxCell>
                <mxCell id="6uhmPw-9wfRqb-_VS2zS-80" value="" style="shape=partialRectangle;html=1;whiteSpace=wrap;connectable=0;overflow=hidden;fillColor=none;top=0;left=0;bottom=0;right=0;pointerEvents=1;" parent="6uhmPw-9wfRqb-_VS2zS-79" vertex="1">
                    <mxGeometry width="50" height="46" as="geometry"/>
                </mxCell>
                <mxCell id="6uhmPw-9wfRqb-_VS2zS-81" value="" style="shape=partialRectangle;collapsible=0;dropTarget=0;pointerEvents=0;fillColor=none;top=0;left=0;bottom=0;right=0;points=[[0,0.5],[1,0.5]];portConstraint=eastwest;" parent="6uhmPw-9wfRqb-_VS2zS-72" vertex="1">
                    <mxGeometry y="138" width="50" height="46" as="geometry"/>
                </mxCell>
                <mxCell id="6uhmPw-9wfRqb-_VS2zS-82" value="" style="shape=partialRectangle;html=1;whiteSpace=wrap;connectable=0;overflow=hidden;fillColor=none;top=0;left=0;bottom=0;right=0;pointerEvents=1;" parent="6uhmPw-9wfRqb-_VS2zS-81" vertex="1">
                    <mxGeometry width="50" height="46" as="geometry"/>
                </mxCell>
                <mxCell id="6uhmPw-9wfRqb-_VS2zS-84" value="" style="shape=partialRectangle;collapsible=0;dropTarget=0;pointerEvents=0;fillColor=none;top=0;left=0;bottom=0;right=0;points=[[0,0.5],[1,0.5]];portConstraint=eastwest;" parent="6uhmPw-9wfRqb-_VS2zS-72" vertex="1">
                    <mxGeometry y="184" width="50" height="46" as="geometry"/>
                </mxCell>
                <mxCell id="6uhmPw-9wfRqb-_VS2zS-85" value="" style="shape=partialRectangle;html=1;whiteSpace=wrap;connectable=0;overflow=hidden;fillColor=none;top=0;left=0;bottom=0;right=0;pointerEvents=1;" parent="6uhmPw-9wfRqb-_VS2zS-84" vertex="1">
                    <mxGeometry width="50" height="46" as="geometry"/>
                </mxCell>
                <mxCell id="6uhmPw-9wfRqb-_VS2zS-102" value="" style="shape=table;startSize=0;container=1;collapsible=0;childLayout=tableLayout;" parent="6uhmPw-9wfRqb-_VS2zS-56" vertex="1">
                    <mxGeometry x="390" y="105" width="50" height="230" as="geometry"/>
                </mxCell>
                <mxCell id="6uhmPw-9wfRqb-_VS2zS-103" style="edgeStyle=orthogonalEdgeStyle;html=1;exitX=1;exitY=0.5;exitDx=0;exitDy=0;entryX=1;entryY=0.5;entryDx=0;entryDy=0;" parent="6uhmPw-9wfRqb-_VS2zS-102" source="6uhmPw-9wfRqb-_VS2zS-104" target="6uhmPw-9wfRqb-_VS2zS-111" edge="1">
                    <mxGeometry relative="1" as="geometry"/>
                </mxCell>
                <mxCell id="6uhmPw-9wfRqb-_VS2zS-104" value="" style="shape=partialRectangle;collapsible=0;dropTarget=0;pointerEvents=0;fillColor=none;top=0;left=0;bottom=0;right=0;points=[[0,0.5],[1,0.5]];portConstraint=eastwest;" parent="6uhmPw-9wfRqb-_VS2zS-102" vertex="1">
                    <mxGeometry width="50" height="46" as="geometry"/>
                </mxCell>
                <mxCell id="6uhmPw-9wfRqb-_VS2zS-105" value="next" style="shape=partialRectangle;html=1;whiteSpace=wrap;connectable=0;overflow=hidden;fillColor=none;top=0;left=0;bottom=0;right=0;pointerEvents=1;" parent="6uhmPw-9wfRqb-_VS2zS-104" vertex="1">
                    <mxGeometry width="50" height="46" as="geometry"/>
                </mxCell>
                <mxCell id="6uhmPw-9wfRqb-_VS2zS-106" style="edgeStyle=orthogonalEdgeStyle;html=1;exitX=1;exitY=0.5;exitDx=0;exitDy=0;entryX=1;entryY=0.5;entryDx=0;entryDy=0;" parent="6uhmPw-9wfRqb-_VS2zS-102" source="6uhmPw-9wfRqb-_VS2zS-107" target="6uhmPw-9wfRqb-_VS2zS-114" edge="1">
                    <mxGeometry relative="1" as="geometry">
                        <Array as="points">
                            <mxPoint x="100" y="69"/>
                            <mxPoint x="100" y="207"/>
                        </Array>
                    </mxGeometry>
                </mxCell>
                <mxCell id="6uhmPw-9wfRqb-_VS2zS-107" value="" style="shape=partialRectangle;collapsible=0;dropTarget=0;pointerEvents=0;fillColor=none;top=0;left=0;bottom=0;right=0;points=[[0,0.5],[1,0.5]];portConstraint=eastwest;" parent="6uhmPw-9wfRqb-_VS2zS-102" vertex="1">
                    <mxGeometry y="46" width="50" height="46" as="geometry"/>
                </mxCell>
                <mxCell id="6uhmPw-9wfRqb-_VS2zS-108" value="" style="shape=partialRectangle;html=1;whiteSpace=wrap;connectable=0;overflow=hidden;fillColor=none;top=0;left=0;bottom=0;right=0;pointerEvents=1;" parent="6uhmPw-9wfRqb-_VS2zS-107" vertex="1">
                    <mxGeometry width="50" height="46" as="geometry"/>
                </mxCell>
                <mxCell id="6uhmPw-9wfRqb-_VS2zS-109" value="" style="shape=partialRectangle;collapsible=0;dropTarget=0;pointerEvents=0;fillColor=none;top=0;left=0;bottom=0;right=0;points=[[0,0.5],[1,0.5]];portConstraint=eastwest;" parent="6uhmPw-9wfRqb-_VS2zS-102" vertex="1">
                    <mxGeometry y="92" width="50" height="46" as="geometry"/>
                </mxCell>
                <mxCell id="6uhmPw-9wfRqb-_VS2zS-110" value="" style="shape=partialRectangle;html=1;whiteSpace=wrap;connectable=0;overflow=hidden;fillColor=none;top=0;left=0;bottom=0;right=0;pointerEvents=1;" parent="6uhmPw-9wfRqb-_VS2zS-109" vertex="1">
                    <mxGeometry width="50" height="46" as="geometry"/>
                </mxCell>
                <mxCell id="6uhmPw-9wfRqb-_VS2zS-111" value="" style="shape=partialRectangle;collapsible=0;dropTarget=0;pointerEvents=0;fillColor=none;top=0;left=0;bottom=0;right=0;points=[[0,0.5],[1,0.5]];portConstraint=eastwest;" parent="6uhmPw-9wfRqb-_VS2zS-102" vertex="1">
                    <mxGeometry y="138" width="50" height="46" as="geometry"/>
                </mxCell>
                <mxCell id="6uhmPw-9wfRqb-_VS2zS-112" value="" style="shape=partialRectangle;html=1;whiteSpace=wrap;connectable=0;overflow=hidden;fillColor=none;top=0;left=0;bottom=0;right=0;pointerEvents=1;" parent="6uhmPw-9wfRqb-_VS2zS-111" vertex="1">
                    <mxGeometry width="50" height="46" as="geometry"/>
                </mxCell>
                <mxCell id="6uhmPw-9wfRqb-_VS2zS-114" value="" style="shape=partialRectangle;collapsible=0;dropTarget=0;pointerEvents=0;fillColor=none;top=0;left=0;bottom=0;right=0;points=[[0,0.5],[1,0.5]];portConstraint=eastwest;" parent="6uhmPw-9wfRqb-_VS2zS-102" vertex="1">
                    <mxGeometry y="184" width="50" height="46" as="geometry"/>
                </mxCell>
                <mxCell id="6uhmPw-9wfRqb-_VS2zS-115" value="" style="shape=partialRectangle;html=1;whiteSpace=wrap;connectable=0;overflow=hidden;fillColor=none;top=0;left=0;bottom=0;right=0;pointerEvents=1;" parent="6uhmPw-9wfRqb-_VS2zS-114" vertex="1">
                    <mxGeometry width="50" height="46" as="geometry"/>
                </mxCell>
                <mxCell id="6uhmPw-9wfRqb-_VS2zS-116" value="" style="shape=table;startSize=0;container=1;collapsible=0;childLayout=tableLayout;" parent="6uhmPw-9wfRqb-_VS2zS-56" vertex="1">
                    <mxGeometry x="360" y="355" width="60" height="40" as="geometry"/>
                </mxCell>
                <mxCell id="6uhmPw-9wfRqb-_VS2zS-117" value="" style="shape=partialRectangle;collapsible=0;dropTarget=0;pointerEvents=0;fillColor=none;top=0;left=0;bottom=0;right=0;points=[[0,0.5],[1,0.5]];portConstraint=eastwest;" parent="6uhmPw-9wfRqb-_VS2zS-116" vertex="1">
                    <mxGeometry width="60" height="40" as="geometry"/>
                </mxCell>
                <mxCell id="6uhmPw-9wfRqb-_VS2zS-118" value="null / -1" style="shape=partialRectangle;html=1;whiteSpace=wrap;connectable=0;overflow=hidden;fillColor=none;top=0;left=0;bottom=0;right=0;pointerEvents=1;" parent="6uhmPw-9wfRqb-_VS2zS-117" vertex="1">
                    <mxGeometry width="60" height="40" as="geometry"/>
                </mxCell>
                <mxCell id="6uhmPw-9wfRqb-_VS2zS-119" style="edgeStyle=orthogonalEdgeStyle;html=1;exitX=1;exitY=0.5;exitDx=0;exitDy=0;entryX=1;entryY=0.5;entryDx=0;entryDy=0;" parent="6uhmPw-9wfRqb-_VS2zS-56" source="6uhmPw-9wfRqb-_VS2zS-111" target="6uhmPw-9wfRqb-_VS2zS-117" edge="1">
                    <mxGeometry relative="1" as="geometry">
                        <mxPoint x="415" y="335" as="targetPoint"/>
                    </mxGeometry>
                </mxCell>
                <mxCell id="6uhmPw-9wfRqb-_VS2zS-120" style="edgeStyle=orthogonalEdgeStyle;html=1;exitX=1;exitY=0.5;exitDx=0;exitDy=0;entryX=1;entryY=0.5;entryDx=0;entryDy=0;" parent="6uhmPw-9wfRqb-_VS2zS-56" source="6uhmPw-9wfRqb-_VS2zS-114" target="6uhmPw-9wfRqb-_VS2zS-117" edge="1">
                    <mxGeometry relative="1" as="geometry">
                        <mxPoint x="415" y="335" as="targetPoint"/>
                        <Array as="points">
                            <mxPoint x="490" y="312"/>
                            <mxPoint x="490" y="375"/>
                        </Array>
                    </mxGeometry>
                </mxCell>
                <mxCell id="6uhmPw-9wfRqb-_VS2zS-122" style="edgeStyle=orthogonalEdgeStyle;html=1;exitX=1;exitY=0.5;exitDx=0;exitDy=0;entryX=0;entryY=0.5;entryDx=0;entryDy=0;" parent="6uhmPw-9wfRqb-_VS2zS-56" source="6uhmPw-9wfRqb-_VS2zS-74" target="6uhmPw-9wfRqb-_VS2zS-104" edge="1">
                    <mxGeometry relative="1" as="geometry"/>
                </mxCell>
                <mxCell id="6uhmPw-9wfRqb-_VS2zS-123" style="edgeStyle=orthogonalEdgeStyle;html=1;exitX=1;exitY=0.5;exitDx=0;exitDy=0;" parent="6uhmPw-9wfRqb-_VS2zS-56" source="6uhmPw-9wfRqb-_VS2zS-81" target="6uhmPw-9wfRqb-_VS2zS-107" edge="1">
                    <mxGeometry relative="1" as="geometry"/>
                </mxCell>
                <mxCell id="jTLxNKS8DwFmSf2O8Qsz-0" style="edgeStyle=orthogonalEdgeStyle;html=1;exitX=1;exitY=0.5;exitDx=0;exitDy=0;entryX=0;entryY=0.5;entryDx=0;entryDy=0;" parent="6uhmPw-9wfRqb-_VS2zS-1" source="6uhmPw-9wfRqb-_VS2zS-104" target="6uhmPw-9wfRqb-_VS2zS-42" edge="1">
                    <mxGeometry relative="1" as="geometry"/>
                </mxCell>
                <mxCell id="jTLxNKS8DwFmSf2O8Qsz-1" style="edgeStyle=orthogonalEdgeStyle;html=1;exitX=1;exitY=0.5;exitDx=0;exitDy=0;entryX=0;entryY=0.5;entryDx=0;entryDy=0;" parent="6uhmPw-9wfRqb-_VS2zS-1" source="6uhmPw-9wfRqb-_VS2zS-109" target="6uhmPw-9wfRqb-_VS2zS-40" edge="1">
                    <mxGeometry relative="1" as="geometry"/>
                </mxCell>
            </root>
        </mxGraphModel>
    </diagram>
</mxfile>